<?xml version="1.0" encoding="UTF-8" standalone="no"?>
<svg
   width="108"
   height="13"
   viewBox="0 0 108 13"
   version="1.1"
   id="svg25"
   sodipodi:docname="cp_fcn.svg"
   inkscape:version="1.3.2 (091e20e, 2023-11-25, custom)"
   xmlns:inkscape="http://www.inkscape.org/namespaces/inkscape"
   xmlns:sodipodi="http://sodipodi.sourceforge.net/DTD/sodipodi-0.dtd"
   xmlns:xlink="http://www.w3.org/1999/xlink"
   xmlns="http://www.w3.org/2000/svg"
   xmlns:svg="http://www.w3.org/2000/svg">
  <sodipodi:namedview
     id="namedview25"
     pagecolor="#ffffff"
     bordercolor="#000000"
     borderopacity="0.25"
     inkscape:showpageshadow="2"
     inkscape:pageopacity="0.0"
     inkscape:pagecheckerboard="0"
     inkscape:deskcolor="#d1d1d1"
     inkscape:zoom="10.796296"
     inkscape:cx="50.572899"
     inkscape:cy="6.5300172"
     inkscape:window-width="1920"
     inkscape:window-height="991"
     inkscape:window-x="-9"
     inkscape:window-y="-9"
     inkscape:window-maximized="1"
     inkscape:current-layer="svg25" />
  <defs
     id="defs10">
    <g
       id="g10">
      <g
         id="glyph-0-0">
        <path
           d="M 3.953125 -3.78125 C 3.78125 -3.78125 3.65625 -3.78125 3.515625 -3.65625 C 3.34375 -3.5 3.328125 -3.328125 3.328125 -3.265625 C 3.328125 -3.015625 3.515625 -2.90625 3.703125 -2.90625 C 3.984375 -2.90625 4.25 -3.15625 4.25 -3.546875 C 4.25 -4.03125 3.78125 -4.40625 3.078125 -4.40625 C 1.734375 -4.40625 0.40625 -2.984375 0.40625 -1.578125 C 0.40625 -0.671875 0.984375 0.109375 2.03125 0.109375 C 3.453125 0.109375 4.28125 -0.953125 4.28125 -1.0625 C 4.28125 -1.125 4.234375 -1.203125 4.171875 -1.203125 C 4.109375 -1.203125 4.09375 -1.171875 4.03125 -1.09375 C 3.25 -0.109375 2.15625 -0.109375 2.046875 -0.109375 C 1.421875 -0.109375 1.140625 -0.59375 1.140625 -1.203125 C 1.140625 -1.609375 1.34375 -2.578125 1.6875 -3.1875 C 2 -3.765625 2.546875 -4.1875 3.09375 -4.1875 C 3.421875 -4.1875 3.8125 -4.0625 3.953125 -3.78125 Z M 3.953125 -3.78125 "
           id="path1" />
      </g>
      <g
         id="glyph-0-1">
        <path
           d="M 3.71875 -3.765625 C 3.53125 -4.140625 3.25 -4.40625 2.796875 -4.40625 C 1.640625 -4.40625 0.40625 -2.9375 0.40625 -1.484375 C 0.40625 -0.546875 0.953125 0.109375 1.71875 0.109375 C 1.921875 0.109375 2.421875 0.0625 3.015625 -0.640625 C 3.09375 -0.21875 3.453125 0.109375 3.921875 0.109375 C 4.28125 0.109375 4.5 -0.125 4.671875 -0.4375 C 4.828125 -0.796875 4.96875 -1.40625 4.96875 -1.421875 C 4.96875 -1.53125 4.875 -1.53125 4.84375 -1.53125 C 4.75 -1.53125 4.734375 -1.484375 4.703125 -1.34375 C 4.53125 -0.703125 4.359375 -0.109375 3.953125 -0.109375 C 3.671875 -0.109375 3.65625 -0.375 3.65625 -0.5625 C 3.65625 -0.78125 3.671875 -0.875 3.78125 -1.3125 C 3.890625 -1.71875 3.90625 -1.828125 4 -2.203125 L 4.359375 -3.59375 C 4.421875 -3.875 4.421875 -3.890625 4.421875 -3.9375 C 4.421875 -4.109375 4.3125 -4.203125 4.140625 -4.203125 C 3.890625 -4.203125 3.75 -3.984375 3.71875 -3.765625 Z M 3.078125 -1.1875 C 3.015625 -1 3.015625 -0.984375 2.875 -0.8125 C 2.4375 -0.265625 2.03125 -0.109375 1.75 -0.109375 C 1.25 -0.109375 1.109375 -0.65625 1.109375 -1.046875 C 1.109375 -1.546875 1.421875 -2.765625 1.65625 -3.234375 C 1.96875 -3.8125 2.40625 -4.1875 2.8125 -4.1875 C 3.453125 -4.1875 3.59375 -3.375 3.59375 -3.3125 C 3.59375 -3.25 3.578125 -3.1875 3.5625 -3.140625 Z M 3.078125 -1.1875 "
           id="path2" />
      </g>
      <g
         id="glyph-0-2">
        <path
           d="M 2.375 -6.8125 C 2.375 -6.8125 2.375 -6.921875 2.25 -6.921875 C 2.03125 -6.921875 1.296875 -6.84375 1.03125 -6.8125 C 0.953125 -6.8125 0.84375 -6.796875 0.84375 -6.625 C 0.84375 -6.5 0.9375 -6.5 1.09375 -6.5 C 1.5625 -6.5 1.578125 -6.4375 1.578125 -6.328125 C 1.578125 -6.265625 1.5 -5.921875 1.453125 -5.71875 L 0.625 -2.46875 C 0.515625 -1.96875 0.46875 -1.796875 0.46875 -1.453125 C 0.46875 -0.515625 1 0.109375 1.734375 0.109375 C 2.90625 0.109375 4.140625 -1.375 4.140625 -2.8125 C 4.140625 -3.71875 3.609375 -4.40625 2.8125 -4.40625 C 2.359375 -4.40625 1.9375 -4.109375 1.640625 -3.8125 Z M 1.453125 -3.046875 C 1.5 -3.265625 1.5 -3.28125 1.59375 -3.390625 C 2.078125 -4.03125 2.53125 -4.1875 2.796875 -4.1875 C 3.15625 -4.1875 3.421875 -3.890625 3.421875 -3.25 C 3.421875 -2.65625 3.09375 -1.515625 2.90625 -1.140625 C 2.578125 -0.46875 2.125 -0.109375 1.734375 -0.109375 C 1.390625 -0.109375 1.0625 -0.375 1.0625 -1.109375 C 1.0625 -1.3125 1.0625 -1.5 1.21875 -2.125 Z M 1.453125 -3.046875 "
           id="path3" />
      </g>
      <g
         id="glyph-0-3">
        <path
           d="M 4.25 -6.046875 C 4.328125 -6.328125 4.359375 -6.390625 4.484375 -6.421875 C 4.578125 -6.4375 4.90625 -6.4375 5.109375 -6.4375 C 6.125 -6.4375 6.5625 -6.40625 6.5625 -5.625 C 6.5625 -5.46875 6.53125 -5.078125 6.484375 -4.828125 C 6.484375 -4.78125 6.453125 -4.671875 6.453125 -4.640625 C 6.453125 -4.578125 6.484375 -4.5 6.578125 -4.5 C 6.6875 -4.5 6.703125 -4.578125 6.734375 -4.734375 L 7 -6.46875 C 7.015625 -6.515625 7.015625 -6.609375 7.015625 -6.640625 C 7.015625 -6.75 6.921875 -6.75 6.75 -6.75 L 1.21875 -6.75 C 0.984375 -6.75 0.96875 -6.734375 0.890625 -6.546875 L 0.296875 -4.796875 C 0.296875 -4.78125 0.234375 -4.640625 0.234375 -4.609375 C 0.234375 -4.5625 0.296875 -4.5 0.359375 -4.5 C 0.453125 -4.5 0.46875 -4.5625 0.53125 -4.71875 C 1.0625 -6.265625 1.328125 -6.4375 2.796875 -6.4375 L 3.1875 -6.4375 C 3.46875 -6.4375 3.46875 -6.40625 3.46875 -6.3125 C 3.46875 -6.265625 3.4375 -6.140625 3.421875 -6.109375 L 2.09375 -0.78125 C 2 -0.421875 1.96875 -0.3125 0.90625 -0.3125 C 0.546875 -0.3125 0.484375 -0.3125 0.484375 -0.125 C 0.484375 0 0.59375 0 0.65625 0 C 0.921875 0 1.203125 -0.015625 1.46875 -0.015625 C 1.75 -0.015625 2.046875 -0.03125 2.328125 -0.03125 C 2.609375 -0.03125 2.875 -0.015625 3.15625 -0.015625 C 3.4375 -0.015625 3.734375 0 4.015625 0 C 4.109375 0 4.234375 0 4.234375 -0.203125 C 4.234375 -0.3125 4.15625 -0.3125 3.890625 -0.3125 C 3.65625 -0.3125 3.515625 -0.3125 3.265625 -0.328125 C 2.96875 -0.359375 2.890625 -0.390625 2.890625 -0.546875 C 2.890625 -0.5625 2.890625 -0.609375 2.9375 -0.75 Z M 4.25 -6.046875 "
           id="path4" />
      </g>
      <g
         id="glyph-0-4">
        <path
           d="M 5.140625 -6.8125 C 5.140625 -6.8125 5.140625 -6.921875 5.015625 -6.921875 C 4.859375 -6.921875 3.921875 -6.828125 3.75 -6.8125 C 3.671875 -6.796875 3.609375 -6.75 3.609375 -6.625 C 3.609375 -6.5 3.703125 -6.5 3.84375 -6.5 C 4.328125 -6.5 4.34375 -6.4375 4.34375 -6.328125 L 4.3125 -6.125 L 3.71875 -3.765625 C 3.53125 -4.140625 3.25 -4.40625 2.796875 -4.40625 C 1.640625 -4.40625 0.40625 -2.9375 0.40625 -1.484375 C 0.40625 -0.546875 0.953125 0.109375 1.71875 0.109375 C 1.921875 0.109375 2.421875 0.0625 3.015625 -0.640625 C 3.09375 -0.21875 3.453125 0.109375 3.921875 0.109375 C 4.28125 0.109375 4.5 -0.125 4.671875 -0.4375 C 4.828125 -0.796875 4.96875 -1.40625 4.96875 -1.421875 C 4.96875 -1.53125 4.875 -1.53125 4.84375 -1.53125 C 4.75 -1.53125 4.734375 -1.484375 4.703125 -1.34375 C 4.53125 -0.703125 4.359375 -0.109375 3.953125 -0.109375 C 3.671875 -0.109375 3.65625 -0.375 3.65625 -0.5625 C 3.65625 -0.8125 3.671875 -0.875 3.703125 -1.046875 Z M 3.078125 -1.1875 C 3.015625 -1 3.015625 -0.984375 2.875 -0.8125 C 2.4375 -0.265625 2.03125 -0.109375 1.75 -0.109375 C 1.25 -0.109375 1.109375 -0.65625 1.109375 -1.046875 C 1.109375 -1.546875 1.421875 -2.765625 1.65625 -3.234375 C 1.96875 -3.8125 2.40625 -4.1875 2.8125 -4.1875 C 3.453125 -4.1875 3.59375 -3.375 3.59375 -3.3125 C 3.59375 -3.25 3.578125 -3.1875 3.5625 -3.140625 Z M 3.078125 -1.1875 "
           id="path5" />
      </g>
      <g
         id="glyph-1-0">
        <path
           d="M 0.515625 0.84375 C 0.46875 1.046875 0.453125 1.09375 0.1875 1.09375 C 0.09375 1.09375 0 1.09375 0 1.25 C 0 1.328125 0.0625 1.359375 0.09375 1.359375 C 0.265625 1.359375 0.5 1.328125 0.6875 1.328125 C 0.921875 1.328125 1.1875 1.359375 1.421875 1.359375 C 1.484375 1.359375 1.5625 1.328125 1.5625 1.203125 C 1.5625 1.09375 1.46875 1.09375 1.375 1.09375 C 1.21875 1.09375 1.03125 1.09375 1.03125 1.015625 C 1.03125 0.984375 1.09375 0.796875 1.109375 0.703125 C 1.203125 0.328125 1.296875 -0.046875 1.375 -0.34375 C 1.453125 -0.203125 1.671875 0.0625 2.09375 0.0625 C 2.9375 0.0625 3.875 -0.875 3.875 -1.90625 C 3.875 -2.71875 3.3125 -3.078125 2.84375 -3.078125 C 2.40625 -3.078125 2.03125 -2.78125 1.84375 -2.578125 C 1.734375 -2.984375 1.34375 -3.078125 1.125 -3.078125 C 0.859375 -3.078125 0.6875 -2.890625 0.578125 -2.703125 C 0.4375 -2.46875 0.328125 -2.046875 0.328125 -2 C 0.328125 -1.921875 0.421875 -1.921875 0.453125 -1.921875 C 0.546875 -1.921875 0.546875 -1.9375 0.59375 -2.125 C 0.703125 -2.53125 0.84375 -2.875 1.109375 -2.875 C 1.296875 -2.875 1.34375 -2.71875 1.34375 -2.53125 C 1.34375 -2.453125 1.328125 -2.375 1.3125 -2.328125 Z M 1.84375 -2.234375 C 2.25 -2.78125 2.59375 -2.875 2.8125 -2.875 C 3.09375 -2.875 3.328125 -2.671875 3.328125 -2.203125 C 3.328125 -1.921875 3.171875 -1.203125 2.96875 -0.796875 C 2.78125 -0.453125 2.453125 -0.125 2.09375 -0.125 C 1.59375 -0.125 1.46875 -0.65625 1.46875 -0.734375 C 1.46875 -0.765625 1.484375 -0.8125 1.484375 -0.84375 Z M 1.84375 -2.234375 "
           id="path6" />
      </g>
      <g
         id="glyph-2-0">
        <path
           d="M 6.84375 -3.265625 C 7 -3.265625 7.1875 -3.265625 7.1875 -3.453125 C 7.1875 -3.65625 7 -3.65625 6.859375 -3.65625 L 0.890625 -3.65625 C 0.75 -3.65625 0.5625 -3.65625 0.5625 -3.453125 C 0.5625 -3.265625 0.75 -3.265625 0.890625 -3.265625 Z M 6.859375 -1.328125 C 7 -1.328125 7.1875 -1.328125 7.1875 -1.53125 C 7.1875 -1.71875 7 -1.71875 6.84375 -1.71875 L 0.890625 -1.71875 C 0.75 -1.71875 0.5625 -1.71875 0.5625 -1.53125 C 0.5625 -1.328125 0.75 -1.328125 0.890625 -1.328125 Z M 6.859375 -1.328125 "
           id="path7" />
      </g>
      <g
         id="glyph-2-1">
        <path
           d="M 4.078125 -2.296875 L 6.859375 -2.296875 C 7 -2.296875 7.1875 -2.296875 7.1875 -2.5 C 7.1875 -2.6875 7 -2.6875 6.859375 -2.6875 L 4.078125 -2.6875 L 4.078125 -5.484375 C 4.078125 -5.625 4.078125 -5.8125 3.875 -5.8125 C 3.671875 -5.8125 3.671875 -5.625 3.671875 -5.484375 L 3.671875 -2.6875 L 0.890625 -2.6875 C 0.75 -2.6875 0.5625 -2.6875 0.5625 -2.5 C 0.5625 -2.296875 0.75 -2.296875 0.890625 -2.296875 L 3.671875 -2.296875 L 3.671875 0.5 C 3.671875 0.640625 3.671875 0.828125 3.875 0.828125 C 4.078125 0.828125 4.078125 0.640625 4.078125 0.5 Z M 4.078125 -2.296875 "
           id="path8" />
      </g>
      <g
         id="glyph-3-0">
        <path
           d="M 3.515625 -1.265625 L 3.28125 -1.265625 C 3.265625 -1.109375 3.1875 -0.703125 3.09375 -0.640625 C 3.046875 -0.59375 2.515625 -0.59375 2.40625 -0.59375 L 1.125 -0.59375 C 1.859375 -1.234375 2.109375 -1.4375 2.515625 -1.765625 C 3.03125 -2.171875 3.515625 -2.609375 3.515625 -3.265625 C 3.515625 -4.109375 2.78125 -4.625 1.890625 -4.625 C 1.03125 -4.625 0.4375 -4.015625 0.4375 -3.375 C 0.4375 -3.03125 0.734375 -2.984375 0.8125 -2.984375 C 0.96875 -2.984375 1.171875 -3.109375 1.171875 -3.359375 C 1.171875 -3.484375 1.125 -3.734375 0.765625 -3.734375 C 0.984375 -4.21875 1.453125 -4.375 1.78125 -4.375 C 2.484375 -4.375 2.84375 -3.828125 2.84375 -3.265625 C 2.84375 -2.65625 2.40625 -2.1875 2.1875 -1.9375 L 0.515625 -0.265625 C 0.4375 -0.203125 0.4375 -0.1875 0.4375 0 L 3.3125 0 Z M 3.515625 -1.265625 "
           id="path9" />
      </g>
      <g
         id="glyph-3-1">
        <path
           d="M 1.90625 -2.328125 C 2.453125 -2.328125 2.84375 -1.953125 2.84375 -1.203125 C 2.84375 -0.34375 2.328125 -0.078125 1.9375 -0.078125 C 1.65625 -0.078125 1.03125 -0.15625 0.75 -0.578125 C 1.078125 -0.578125 1.15625 -0.8125 1.15625 -0.96875 C 1.15625 -1.1875 0.984375 -1.34375 0.765625 -1.34375 C 0.578125 -1.34375 0.375 -1.21875 0.375 -0.9375 C 0.375 -0.28125 1.09375 0.140625 1.9375 0.140625 C 2.90625 0.140625 3.578125 -0.515625 3.578125 -1.203125 C 3.578125 -1.75 3.140625 -2.296875 2.375 -2.453125 C 3.09375 -2.71875 3.359375 -3.234375 3.359375 -3.671875 C 3.359375 -4.21875 2.734375 -4.625 1.953125 -4.625 C 1.1875 -4.625 0.59375 -4.25 0.59375 -3.6875 C 0.59375 -3.453125 0.75 -3.328125 0.953125 -3.328125 C 1.171875 -3.328125 1.3125 -3.484375 1.3125 -3.671875 C 1.3125 -3.875 1.171875 -4.03125 0.953125 -4.046875 C 1.203125 -4.34375 1.671875 -4.421875 1.9375 -4.421875 C 2.25 -4.421875 2.6875 -4.265625 2.6875 -3.671875 C 2.6875 -3.375 2.59375 -3.046875 2.40625 -2.84375 C 2.1875 -2.578125 1.984375 -2.5625 1.640625 -2.53125 C 1.46875 -2.515625 1.453125 -2.515625 1.421875 -2.515625 C 1.40625 -2.515625 1.34375 -2.5 1.34375 -2.421875 C 1.34375 -2.328125 1.40625 -2.328125 1.53125 -2.328125 Z M 1.90625 -2.328125 "
           id="path10" />
      </g>
    </g>
  </defs>
  <g
     fill="rgb(0%, 0%, 0%)"
     fill-opacity="1"
     id="g11"
     style="fill:#ffffff;fill-opacity:1">
    <use
       xlink:href="#glyph-0-0"
       x="0.460156"
       y="9.71797"
       id="use10"
       style="fill:#ffffff;fill-opacity:1" />
  </g>
  <g
     fill="rgb(0%, 0%, 0%)"
     fill-opacity="1"
     id="g12"
     style="fill:#ffffff;fill-opacity:1">
    <use
       xlink:href="#glyph-1-0"
       x="4.771096"
       y="11.21211"
       id="use11"
       style="fill:#ffffff;fill-opacity:1" />
  </g>
  <g
     fill="rgb(0%, 0%, 0%)"
     fill-opacity="1"
     id="g13"
     style="fill:#ffffff;fill-opacity:1">
    <use
       xlink:href="#glyph-2-0"
       x="12.142186"
       y="9.71797"
       id="use12"
       style="fill:#ffffff;fill-opacity:1" />
  </g>
  <g
     fill="rgb(0%, 0%, 0%)"
     fill-opacity="1"
     id="g14"
     style="fill:#ffffff;fill-opacity:1">
    <use
       xlink:href="#glyph-0-1"
       x="22.663286"
       y="9.71797"
       id="use13"
       style="fill:#ffffff;fill-opacity:1" />
  </g>
  <g
     fill="rgb(0%, 0%, 0%)"
     fill-opacity="1"
     id="g15"
     style="fill:#ffffff;fill-opacity:1">
    <use
       xlink:href="#glyph-2-1"
       x="30.142196"
       y="9.71797"
       id="use14"
       style="fill:#ffffff;fill-opacity:1" />
  </g>
  <g
     fill="rgb(0%, 0%, 0%)"
     fill-opacity="1"
     id="g16"
     style="fill:#ffffff;fill-opacity:1">
    <use
       xlink:href="#glyph-0-2"
       x="40.105086"
       y="9.71797"
       id="use15"
       style="fill:#ffffff;fill-opacity:1" />
  </g>
  <g
     fill="rgb(0%, 0%, 0%)"
     fill-opacity="1"
     id="g17"
     style="fill:#ffffff;fill-opacity:1">
    <use
       xlink:href="#glyph-0-3"
       x="44.380087"
       y="9.71797"
       id="use16"
       style="fill:#ffffff;fill-opacity:1" />
  </g>
  <g
     fill="rgb(0%, 0%, 0%)"
     fill-opacity="1"
     id="g18"
     style="fill:#ffffff;fill-opacity:1">
    <use
       xlink:href="#glyph-2-1"
       x="53.803086"
       y="9.71797"
       id="use17"
       style="fill:#ffffff;fill-opacity:1" />
  </g>
  <g
     fill="rgb(0%, 0%, 0%)"
     fill-opacity="1"
     id="g19"
     style="fill:#ffffff;fill-opacity:1">
    <use
       xlink:href="#glyph-0-0"
       x="63.765976"
       y="9.71797"
       id="use18"
       style="fill:#ffffff;fill-opacity:1" />
  </g>
  <g
     fill="rgb(0%, 0%, 0%)"
     fill-opacity="1"
     id="g20"
     style="fill:#ffffff;fill-opacity:1">
    <use
       xlink:href="#glyph-0-3"
       x="68.076978"
       y="9.71797"
       id="use19"
       style="fill:#ffffff;fill-opacity:1" />
  </g>
  <g
     fill="rgb(0%, 0%, 0%)"
     fill-opacity="1"
     id="g21"
     style="fill:#ffffff;fill-opacity:1">
    <use
       xlink:href="#glyph-3-0"
       x="75.285876"
       y="5.60508"
       id="use20"
       style="fill:#ffffff;fill-opacity:1" />
  </g>
  <g
     fill="rgb(0%, 0%, 0%)"
     fill-opacity="1"
     id="g22"
     style="fill:#ffffff;fill-opacity:1">
    <use
       xlink:href="#glyph-2-1"
       x="81.963996"
       y="9.71797"
       id="use21"
       style="fill:#ffffff;fill-opacity:1" />
  </g>
  <g
     fill="rgb(0%, 0%, 0%)"
     fill-opacity="1"
     id="g23"
     style="fill:#ffffff;fill-opacity:1">
    <use
       xlink:href="#glyph-0-4"
       x="91.926886"
       y="9.71797"
       id="use22"
       style="fill:#ffffff;fill-opacity:1" />
  </g>
  <g
     fill="rgb(0%, 0%, 0%)"
     fill-opacity="1"
     id="g24"
     style="fill:#ffffff;fill-opacity:1">
    <use
       xlink:href="#glyph-0-3"
       x="97.110883"
       y="9.71797"
       id="use23"
       style="fill:#ffffff;fill-opacity:1" />
  </g>
  <g
     fill="rgb(0%, 0%, 0%)"
     fill-opacity="1"
     id="g25"
     style="fill:#ffffff;fill-opacity:1">
    <use
       xlink:href="#glyph-3-1"
       x="104.319886"
       y="5.60508"
       id="use24"
       style="fill:#ffffff;fill-opacity:1" />
  </g>
</svg>
